0
SECTION
2
HEADER
9
$INSUNITS
70
4
9
$ACADVER
1
AC1014
9
$HANDSEED
5
FFFF
0
ENDSEC
0
SECTION
2
TABLES
0
TABLE
2
VPORT
5
8
100
AcDbSymbolTable
0
ENDTAB
0
TABLE
2
LTYPE
5
5
100
AcDbSymbolTable
0
LTYPE
5
14
100
AcDbSymbolTableRecord
100
AcDbLinetypeTableRecord
2
BYBLOCK
70
0
0
LTYPE
5
15
100
AcDbSymbolTableRecord
100
AcDbLinetypeTableRecord
2
BYLAYER
70
0
0
ENDTAB
0
TABLE
2
LAYER
5
2
100
AcDbSymbolTable
70
2
0
LAYER
5
50
100
AcDbSymbolTableRecord
100
AcDbLayerTableRecord
2
0
70
0
6
CONTINUOUS
0
ENDTAB
0
TABLE
2
STYLE
5
3
100
AcDbSymbolTable
70
1
0
STYLE
5
11
100
AcDbSymbolTableRecord
100
AcDbTextStyleTableRecord
2
STANDARD
70
0
0
ENDTAB
0
TABLE
2
VIEW
5
6
100
AcDbSymbolTable
70
0
0
ENDTAB
0
TABLE
2
UCS
5
7
100
AcDbSymbolTable
70
0
0
ENDTAB
0
TABLE
2
APPID
5
9
100
AcDbSymbolTable
70
2
0
APPID
5
12
100
AcDbSymbolTableRecord
100
AcDbRegAppTableRecord
2
ACAD
70
0
0
ENDTAB
0
TABLE
2
DIMSTYLE
5
A
100
AcDbSymbolTable
70
1
0
ENDTAB
0
TABLE
2
BLOCK_RECORD
5
1
100
AcDbSymbolTable
70
1
0
BLOCK_RECORD
5
1F
100
AcDbSymbolTableRecord
100
AcDbBlockTableRecord
2
*MODEL_SPACE
0
BLOCK_RECORD
5
1B
100
AcDbSymbolTableRecord
100
AcDbBlockTableRecord
2
*PAPER_SPACE
0
ENDTAB
0
ENDSEC
0
SECTION
2
BLOCKS
0
BLOCK
5
20
100
AcDbEntity
100
AcDbBlockBegin
2
*MODEL_SPACE
0
ENDBLK
5
21
100
AcDbEntity
100
AcDbBlockEnd
0
BLOCK
5
1C
100
AcDbEntity
100
AcDbBlockBegin
2
*PAPER_SPACE
0
ENDBLK
5
1D
100
AcDbEntity
100
AcDbBlockEnd
0
ENDSEC
0
SECTION
2
ENTITIES
0
CIRCLE
5
100
100
AcDbEntity
8
0
100
AcDbCircle
10
214.31376
20
84.534871999999993
30
0
40
1
210
0
220
0
230
1
0
CIRCLE
5
101
100
AcDbEntity
8
0
100
AcDbCircle
10
238.12640000000002
20
29.765800000000002
30
0
40
1
210
0
220
0
230
1
0
CIRCLE
5
102
100
AcDbEntity
8
0
100
AcDbCircle
10
200.02617600000002
20
29.765800000000002
30
0
40
1
210
0
220
0
230
1
0
CIRCLE
5
103
100
AcDbEntity
8
0
100
AcDbCircle
10
157.16342399999999
20
84.534871999999993
30
0
40
1
210
0
220
0
230
1
0
CIRCLE
5
104
100
AcDbEntity
8
0
100
AcDbCircle
10
119.06320000000001
20
84.534871999999993
30
0
40
1
210
0
220
0
230
1
0
CIRCLE
5
105
100
AcDbEntity
8
0
100
AcDbCircle
10
142.87584000000004
20
29.765800000000002
30
0
40
1
210
0
220
0
230
1
0
CIRCLE
5
106
100
AcDbEntity
8
0
100
AcDbCircle
10
85.725504000000001
20
29.765800000000002
30
0
40
1
210
0
220
0
230
1
0
CIRCLE
5
107
100
AcDbEntity
8
0
100
AcDbCircle
10
47.625279999999997
20
29.765800000000002
30
0
40
1
210
0
220
0
230
1
0
CIRCLE
5
108
100
AcDbEntity
8
0
100
AcDbCircle
10
61.912863999999999
20
84.534871999999993
30
0
40
1
210
0
220
0
230
1
0
LWPOLYLINE
5
109
100
AcDbEntity
8
0
100
AcDbPolyline
90
8
70
1
43
0.0
10
258.22204003288948
20
85.726153159915683
42
0.4171979072759468
10
257.18024013052002
20
86.779096457349993
10
28.574518815910146
20
86.771029911044849
42
0.41710839200623778
10
27.521917024380002
20
85.729230049220021
10
27.529630000928833
20
28.581960088275871
42
0.41742063182029465
10
28.571430003132008
20
27.529572415570005
10
257.16593588787379
20
27.533359937443471
42
0.41737304089518901
10
258.21869880910003
20
28.575160059740004
0
LWPOLYLINE
5
110
100
AcDbEntity
8
0
100
AcDbPolyline
90
4
70
1
43
0.0
10
45.125761204901345
20
83.276765010844201
10
59.125761726984649
20
83.276765010844201
10
59.125761726984649
20
69.276764488760918
10
45.125761204901345
20
69.276764488760918
0
LWPOLYLINE
5
111
100
AcDbEntity
8
0
100
AcDbPolyline
90
4
70
1
43
0.0
10
64.175761915307561
20
83.276765010844201
10
78.175762437390858
20
83.276765010844201
10
78.175762437390858
20
69.276764488760904
10
64.175761915307561
20
69.276764488760918
0
LWPOLYLINE
5
112
100
AcDbEntity
8
0
100
AcDbPolyline
90
4
70
1
43
0.0
10
83.22576262571377
20
83.276765010844201
10
97.225763147797082
20
83.276765010844201
10
97.225763147797082
20
69.276764488760904
10
83.225762625713742
20
69.276764488760904
0
LWPOLYLINE
5
113
100
AcDbEntity
8
0
100
AcDbPolyline
90
4
70
1
43
0.0
10
102.27576333611999
20
83.276765010844201
10
116.27576385820331
20
83.276765010844173
10
116.27576385820331
20
69.276764488760875
10
102.27576333611999
20
69.276764488760904
0
LWPOLYLINE
5
114
100
AcDbEntity
8
0
100
AcDbPolyline
90
4
70
1
43
0.0
10
121.32576404652623
20
83.276765010844173
10
135.32576456860951
20
83.276765010844173
10
135.32576456860951
20
69.276764488760875
10
121.32576404652623
20
69.276764488760875
0
LWPOLYLINE
5
115
100
AcDbEntity
8
0
100
AcDbPolyline
90
4
70
1
43
0.0
10
140.37576475693245
20
83.276765010844173
10
154.37576527901572
20
83.276765010844173
10
154.37576527901572
20
69.276764488760875
10
140.37576475693243
20
69.276764488760875
0
LWPOLYLINE
5
116
100
AcDbEntity
8
0
100
AcDbPolyline
90
4
70
1
43
0.0
10
159.42576546733869
20
83.276765010844173
10
173.42576598942199
20
83.276765010844173
10
173.42576598942196
20
69.276764488760875
10
159.42576546733864
20
69.276764488760875
0
LWPOLYLINE
5
117
100
AcDbEntity
8
0
100
AcDbPolyline
90
4
70
1
43
0.0
10
178.4757661777449
20
83.276765010844173
10
192.4757666998282
20
83.276765010844173
10
192.4757666998282
20
69.276764488760875
10
178.4757661777449
20
69.276764488760875
0
LWPOLYLINE
5
118
100
AcDbEntity
8
0
100
AcDbPolyline
90
4
70
1
43
0.0
10
35.600760849698219
20
64.226764300437992
10
49.600761371781559
20
64.226764300437992
10
49.600761371781559
20
50.22676377835468
10
35.600760849698219
20
50.22676377835468
0
LWPOLYLINE
5
119
100
AcDbEntity
8
0
100
AcDbPolyline
90
4
70
1
43
0.0
10
54.650761560104435
20
64.226764300437992
10
68.65076208218774
20
64.226764300437992
10
68.65076208218774
20
50.22676377835468
10
54.650761560104435
20
50.22676377835468
0
LWPOLYLINE
5
120
100
AcDbEntity
8
0
100
AcDbPolyline
90
4
70
1
43
0.0
10
73.700762270510651
20
64.226764300437992
10
87.700762792593991
20
64.226764300437992
10
87.700762792593991
20
50.22676377835468
10
73.700762270510651
20
50.22676377835468
0
LWPOLYLINE
5
121
100
AcDbEntity
8
0
100
AcDbPolyline
90
4
70
1
43
0.0
10
92.750762980916903
20
64.226764300437992
10
106.75076350300019
20
64.226764300437992
10
106.75076350300017
20
50.22676377835468
10
92.750762980916875
20
50.226763778354702
0
LWPOLYLINE
5
122
100
AcDbEntity
8
0
100
AcDbPolyline
90
4
70
1
43
0.0
10
111.80076369132311
20
64.226764300437992
10
125.80076421340642
20
64.226764300437964
10
125.80076421340641
20
50.22676377835468
10
111.8007636913231
20
50.22676377835468
0
LWPOLYLINE
5
123
100
AcDbEntity
8
0
100
AcDbPolyline
90
4
70
1
43
0.0
10
130.85076440172935
20
64.226764300437992
10
144.85076492381262
20
64.226764300437949
10
144.85076492381262
20
50.22676377835468
10
130.85076440172929
20
50.22676377835468
0
LWPOLYLINE
5
124
100
AcDbEntity
8
0
100
AcDbPolyline
90
4
70
1
43
0.0
10
149.90076511213553
20
64.226764300437964
10
163.90076563421883
20
64.226764300437964
10
163.90076563421883
20
50.226763778354666
10
149.90076511213547
20
50.226763778354666
0
LWPOLYLINE
5
125
100
AcDbEntity
8
0
100
AcDbPolyline
90
4
70
1
43
0.0
10
168.95076582254177
20
64.226764300437964
10
182.95076634462507
20
64.226764300437964
10
182.95076634462507
20
50.226763778354666
10
168.95076582254177
20
50.226763778354666
0
LWPOLYLINE
5
126
100
AcDbEntity
8
0
100
AcDbPolyline
90
4
70
1
43
0.0
10
188.00076653294795
20
64.226764300437964
10
202.00076705503125
20
64.226764300437964
10
202.00076705503125
20
50.226763778354666
10
188.00076653294795
20
50.226763778354666
0
LWPOLYLINE
5
127
100
AcDbEntity
8
0
100
AcDbPolyline
90
4
70
1
43
0.0
10
207.05076724335416
20
64.226764300437964
10
221.05076776543746
20
64.226764300437964
10
221.05076776543746
20
50.226763778354666
10
207.05076724335416
20
50.226763778354666
0
LWPOLYLINE
5
128
100
AcDbEntity
8
0
100
AcDbPolyline
90
4
70
1
43
0.0
10
226.10076795376042
20
64.226764300437964
10
240.10076847584372
20
64.226764300437964
10
240.10076847584372
20
50.226763778354652
10
226.10076795376042
20
50.226763778354666
0
LWPOLYLINE
5
129
100
AcDbEntity
8
0
100
AcDbPolyline
90
4
70
1
43
0.0
10
30.838760672115306
20
45.17676359003179
10
44.838761194198611
20
45.17676359003179
10
44.838761194198611
20
31.176763067948468
10
30.838760672115306
20
31.176763067948468
0
LWPOLYLINE
5
130
100
AcDbEntity
8
0
100
AcDbPolyline
90
4
70
1
43
0.0
10
49.888761382521523
20
45.17676359003179
10
63.888761904604863
20
45.17676359003179
10
63.888761904604827
20
31.176763067948468
10
49.888761382521523
20
31.176763067948468
0
LWPOLYLINE
5
131
100
AcDbEntity
8
0
100
AcDbPolyline
90
4
70
1
43
0.0
10
68.938762092927732
20
45.17676359003179
10
82.938762615011044
20
45.17676359003179
10
82.938762615011044
20
31.176763067948468
10
68.938762092927732
20
31.176763067948468
0
LWPOLYLINE
5
132
100
AcDbEntity
8
0
100
AcDbPolyline
90
4
70
1
43
0.0
10
87.988762803333955
20
45.17676359003179
10
101.98876332541728
20
45.17676359003179
10
101.98876332541728
20
31.176763067948468
10
87.988762803333955
20
31.176763067948468
0
LWPOLYLINE
5
133
100
AcDbEntity
8
0
100
AcDbPolyline
90
4
70
1
43
0.0
10
107.03876351374018
20
45.17676359003179
10
121.03876403582349
20
45.176763590031769
10
121.03876403582349
20
31.17676306794845
10
107.03876351374018
20
31.17676306794845
0
LWPOLYLINE
5
134
100
AcDbEntity
8
0
100
AcDbPolyline
90
4
70
1
43
0.0
10
126.08776422410912
20
45.176763590031769
10
140.08776474619245
20
45.176763590031769
10
140.08776474619245
20
31.17676306794845
10
126.08776422410912
20
31.17676306794845
0
LWPOLYLINE
5
135
100
AcDbEntity
8
0
100
AcDbPolyline
90
4
70
1
43
0.0
10
145.1377649345153
20
45.176763590031769
10
159.13876545663595
20
45.176763590031769
10
159.13876545663595
20
31.176763067948432
10
145.1377649345153
20
31.17676306794845
0
LWPOLYLINE
5
136
100
AcDbEntity
8
0
100
AcDbPolyline
90
4
70
1
43
0.0
10
164.18876564495883
20
45.176763590031769
10
178.18876616704216
20
45.176763590031754
10
178.18876616704216
20
31.176763067948432
10
164.18876564495883
20
31.176763067948432
0
LWPOLYLINE
5
137
100
AcDbEntity
8
0
100
AcDbPolyline
90
4
70
1
43
0.0
10
183.23876635536504
20
45.176763590031754
10
197.23876687744837
20
45.176763590031754
10
197.23876687744837
20
31.176763067948432
10
183.23876635536504
20
31.176763067948432
0
LWPOLYLINE
5
138
100
AcDbEntity
8
0
100
AcDbPolyline
90
4
70
1
43
0.0
10
202.28876706577128
20
45.176763590031754
10
216.28876758785464
20
45.176763590031754
10
216.28876758785464
20
31.176763067948432
10
202.28876706577128
20
31.176763067948432
0
LWPOLYLINE
5
139
100
AcDbEntity
8
0
100
AcDbPolyline
90
4
70
1
43
0.0
10
221.33876777617752
20
45.176763590031754
10
235.33876829826082
20
45.176763590031754
10
235.33876829826082
20
31.176763067948432
10
221.33876777617752
20
31.176763067948432
0
LWPOLYLINE
5
140
100
AcDbEntity
8
0
100
AcDbPolyline
90
4
70
1
43
0.0
10
240.38876848658367
20
45.176763590031754
10
254.388769008667
20
45.17676359003174
10
254.388769008667
20
31.176763067948414
10
240.38876848658367
20
31.176763067948414
0
LWPOLYLINE
5
141
100
AcDbEntity
8
0
100
AcDbPolyline
90
4
70
1
43
0.0
10
34.263780499999896
20
80.951306020833002
10
38.001020083333223
20
80.951306020833002
10
38.001020083333223
20
71.855155916666362
10
34.263780499999896
20
71.855155916666362
0
LWPOLYLINE
5
142
100
AcDbEntity
8
0
100
AcDbPolyline
90
4
70
1
43
0.0
10
197.52576241666634
20
83.276776562499592
10
211.5257637854163
20
83.276776562499592
10
211.5257637854163
20
69.276775193749614
10
197.52576241666634
20
69.276775193749643
0
LWPOLYLINE
5
143
100
AcDbEntity
8
0
100
AcDbPolyline
90
4
70
1
43
0.0
10
216.57576241666629
20
83.276776562499592
10
230.57576378541629
20
83.276776562499592
10
230.57576378541629
20
69.276775193749614
10
216.57576241666629
20
69.276775193749643
0
ENDSEC
0
SECTION
2
OBJECTS
0
DICTIONARY
5
C
100
AcDbDictionary
3
ACAD_GROUP
350
D
3
ACAD_MLINESTYLE
350
17
0
DICTIONARY
5
D
100
AcDbDictionary
0
DICTIONARY
5
1A
330
C
100
AcDbDictionary
0
DICTIONARY
5
17
100
AcDbDictionary
0
ENDSEC
0
EOF
