%TF.GenerationSoftware,KiCad,Pcbnew,7.0.5*%
%TF.CreationDate,2023-06-27T22:08:49+09:00*%
%TF.ProjectId,keyboard_011 rev.1.2,6b657962-6f61-4726-945f-303131207265,REV1*%
%TF.SameCoordinates,Original*%
%TF.FileFunction,Paste,Bot*%
%TF.FilePolarity,Positive*%
%FSLAX46Y46*%
G04 Gerber Fmt 4.6, Leading zero omitted, Abs format (unit mm)*
G04 Created by KiCad (PCBNEW 7.0.5) date 2023-06-27 22:08:49*
%MOMM*%
%LPD*%
G01*
G04 APERTURE LIST*
G04 Aperture macros list*
%AMRotRect*
0 Rectangle, with rotation*
0 The origin of the aperture is its center*
0 $1 length*
0 $2 width*
0 $3 Rotation angle, in degrees counterclockwise*
0 Add horizontal line*
21,1,$1,$2,0,0,$3*%
G04 Aperture macros list end*
%ADD10RotRect,2.600000X2.600000X190.000000*%
%ADD11RotRect,2.600000X2.600000X170.000000*%
G04 APERTURE END LIST*
D10*
%TO.C,SW10*%
X170469594Y61650631D03*
X182275390Y61498373D03*
%TD*%
%TO.C,SW32*%
X137089594Y31580631D03*
X148895390Y31428373D03*
%TD*%
D11*
%TO.C,SW39*%
X28003197Y3007991D03*
X39044941Y-1172905D03*
%TD*%
D10*
%TO.C,SW30*%
X102869594Y6210631D03*
X114675390Y6058373D03*
%TD*%
D11*
%TO.C,SW17*%
X51726797Y27854791D03*
X62768541Y23673895D03*
%TD*%
%TO.C,SW40*%
X54483197Y-11342009D03*
X65524941Y-15522905D03*
%TD*%
D10*
%TO.C,SW35*%
X197499594Y18050631D03*
X209305390Y17898373D03*
%TD*%
%TO.C,SW33*%
X157499594Y25510631D03*
X169305390Y25358373D03*
%TD*%
D11*
%TO.C,SW28*%
X31313197Y21767991D03*
X42354941Y17587095D03*
%TD*%
D10*
%TO.C,SW41*%
X96770194Y-14271369D03*
X108575990Y-14423627D03*
%TD*%
D11*
%TO.C,SW36*%
X-29106803Y8247991D03*
X-18065059Y4067095D03*
%TD*%
%TO.C,SW25*%
X-25796803Y26997991D03*
X-14755059Y22817095D03*
%TD*%
%TO.C,SW26*%
X-6213203Y28384891D03*
X4828541Y24203995D03*
%TD*%
D10*
%TO.C,SW11*%
X190885994Y55577431D03*
X202691790Y55425173D03*
%TD*%
%TO.C,SW7*%
X113355994Y56407431D03*
X125161790Y56255173D03*
%TD*%
D11*
%TO.C,SW15*%
X17513197Y53217991D03*
X28554941Y49037095D03*
%TD*%
%TO.C,SW5*%
X55033197Y46597991D03*
X66074941Y42417095D03*
%TD*%
%TO.C,SW1*%
X-19176803Y64517991D03*
X-8135059Y60337095D03*
%TD*%
%TO.C,SW13*%
X-22486803Y45757991D03*
X-11445059Y41577095D03*
%TD*%
%TO.C,SW37*%
X-9516803Y9617991D03*
X1524941Y5437095D03*
%TD*%
%TO.C,SW29*%
X48413197Y9077991D03*
X59454941Y4897095D03*
%TD*%
D10*
%TO.C,SW19*%
X116669594Y37660631D03*
X128475390Y37508373D03*
%TD*%
D11*
%TO.C,SW2*%
X403197Y65907991D03*
X11444941Y61727095D03*
%TD*%
D10*
%TO.C,SW6*%
X96249594Y43720631D03*
X108055390Y43568373D03*
%TD*%
%TO.C,SW43*%
X140389594Y12820631D03*
X152195390Y12668373D03*
%TD*%
%TO.C,SW22*%
X173769594Y42880631D03*
X185575390Y42728373D03*
%TD*%
D11*
%TO.C,SW14*%
X-2906803Y47147991D03*
X8134941Y42967095D03*
%TD*%
D10*
%TO.C,SW18*%
X99559594Y24960631D03*
X111365390Y24808373D03*
%TD*%
%TO.C,SW34*%
X177085994Y24117431D03*
X188891790Y23965173D03*
%TD*%
%TO.C,SW44*%
X160809594Y6750631D03*
X172615390Y6598373D03*
%TD*%
D11*
%TO.C,SW12*%
X-42906803Y39687991D03*
X-31865059Y35507095D03*
%TD*%
%TO.C,SW27*%
X14203197Y34457991D03*
X25244941Y30277095D03*
%TD*%
%TO.C,SW3*%
X20823197Y71977991D03*
X31864941Y67797095D03*
%TD*%
%TO.C,SW4*%
X37933197Y59287991D03*
X48974941Y55107095D03*
%TD*%
D10*
%TO.C,SW9*%
X150879594Y63020631D03*
X162685390Y62868373D03*
%TD*%
%TO.C,SW8*%
X130469594Y69100631D03*
X142275390Y68948373D03*
%TD*%
D11*
%TO.C,SW16*%
X34616797Y40534891D03*
X45658541Y36353995D03*
%TD*%
D10*
%TO.C,SW20*%
X133779594Y50340631D03*
X145585390Y50188373D03*
%TD*%
%TO.C,SW21*%
X154189594Y44270631D03*
X165995390Y44118373D03*
%TD*%
D11*
%TO.C,SW38*%
X10896797Y15694891D03*
X21938541Y11513995D03*
%TD*%
%TO.C,SW24*%
X-46216803Y20927991D03*
X-35175059Y16747095D03*
%TD*%
D10*
%TO.C,SW31*%
X119979594Y18890631D03*
X131785390Y18738373D03*
%TD*%
%TO.C,SW45*%
X180399594Y5360631D03*
X192205390Y5208373D03*
%TD*%
%TO.C,SW42*%
X123289594Y130631D03*
X135095390Y-21627D03*
%TD*%
%TO.C,SW23*%
X194189594Y36810631D03*
X205995390Y36658373D03*
%TD*%
D11*
%TO.C,SW0*%
X-39596803Y58447991D03*
X-28555059Y54267095D03*
%TD*%
M02*
