M48
INCH
T1C0.0118
T2C0.0138
T3C0.0394
T4C0.0886
%
G90
G05
T2
X-1.2612Y0.7181
X-1.1405Y1.4207
X-1.0546Y1.5336
X-0.5595Y1.7541
X-0.5595Y0.8078
X-0.3256Y1.3899
X-0.3226Y1.6549
X0.2592Y0.8351
X0.2613Y0.5019
X0.3761Y1.8166
X0.4845Y2.0087
X0.493Y1.772
X0.9679Y0.4169
X1.0633Y0.2896
X1.0779Y0.9525
X1.5457Y1.8821
X1.7405Y-0.1016
X1.8099Y1.0307
X1.827Y0.8005
X1.8699Y0.8851
X2.0138Y0.2289
X2.038Y1.8269
X2.2211Y1.9226
X2.338Y1.6967
X2.4205Y0.3573
X2.9844Y-0.0647
X3.0709Y1.3219
X3.0962Y0.8536
X3.1099Y0.6291
X3.2007Y0.2831
X3.2493Y0.5983
X3.265Y0.7108
X3.3035Y0.2884
X3.3107Y0.972
X3.3107Y0.826
X3.3157Y0.5006
X3.4159Y0.3022
X3.4328Y0.9259
X3.4365Y0.7746
X3.4542Y1.2669
X3.5207Y0.8488
X3.5208Y1.1905
X3.5651Y0.5742
X3.5996Y0.497
X3.6229Y0.4406
X3.7177Y0.4354
X3.7314Y0.9849
X3.7314Y0.8673
X3.7782Y0.7181
X3.8431Y1.2282
X3.8467Y0.8712
X3.869Y0.3651
X3.9309Y1.1402
X4.0017Y0.5737
X4.1013Y0.3256
X4.1127Y2.1159
X4.1597Y2.0299
X4.3241Y-0.0337
X4.3366Y1.5175
X4.3525Y0.8352
X4.3691Y1.8402
X4.475Y0.3486
X4.7061Y0.8522
X4.8836Y0.5746
X4.9403Y2.1328
X4.9855Y0.8061
X5.2447Y0.0575
X5.3027Y0.1326
X5.4018Y1.3327
X5.446Y0.6446
X5.484Y0.5864
X5.8729Y1.8174
X6.1127Y1.4298
X6.1218Y1.1915
X6.1834Y1.1125
X6.3691Y0.509
X6.4632Y1.8011
X6.8085Y2.2404
X6.8085Y1.789
X6.9255Y1.1865
X7.0542Y0.8756
X7.2617Y0.3668
X7.3933Y0.7181
X7.6835Y1.6746
X7.8611Y1.0694
T3
X3.0125Y2.0533
X3.0125Y1.9533
X3.0125Y1.8533
X3.0125Y1.7533
X3.0125Y1.6533
X3.0125Y1.5533
X3.0125Y1.4533
X3.6095Y1.9533
X3.6105Y2.0533
X3.6105Y1.8533
X3.6105Y1.7533
X3.6105Y1.6533
X3.6105Y1.5533
X3.6105Y1.4533
T4
X-1.0216Y0.8314
X-0.7616Y2.3114
X1.8884Y0.1214
X2.1584Y1.6014
X4.4384Y1.6014
X4.6984Y0.1414
X7.3584Y2.3114
X7.6184Y0.8314
T1
G00X-1.2095Y1.0642
M15
G01X-1.2367Y1.069
M16
G05
G00X-1.0792Y1.8028
M15
G01X-1.1063Y1.8075
M16
G05
G00X-0.9489Y2.5413
M15
G01X-0.976Y2.5461
M16
G05
G00X-0.5359Y0.565
M15
G01X-0.563Y0.5697
M16
G05
G00X-0.4056Y1.3032
M15
G01X-0.4327Y1.3079
M16
G05
G00X-0.2753Y2.0417
M15
G01X-0.3024Y2.0465
M16
G05
G00X-0.145Y2.7803
M15
G01X-0.1721Y2.7851
M16
G05
G00X0.2354Y0.6189
M15
G01X0.2082Y0.6237
M16
G05
G00X0.3654Y1.3578
M15
G01X0.3383Y1.3625
M16
G05
G00X0.4956Y2.0965
M15
G01X0.4685Y2.1012
M16
G05
G00X0.6259Y2.835
M15
G01X0.5988Y2.8398
M16
G05
G00X1.039Y0.8581
M15
G01X1.0119Y0.8629
M16
G05
G00X1.1692Y1.5969
M15
G01X1.1421Y1.6016
M16
G05
G00X1.2995Y2.3354
M15
G01X1.2724Y2.3402
M16
G05
G00X1.4299Y3.074
M15
G01X1.4027Y3.0788
M16
G05
G00X1.7125Y0.3587
M15
G01X1.6854Y0.3634
M16
G05
G00X1.8428Y1.0972
M15
G01X1.8157Y1.102
M16
G05
G00X1.9729Y1.8361
M15
G01X1.9458Y1.8409
M16
G05
G00X2.1035Y2.5744
M15
G01X2.0763Y2.5792
M16
G05
G00X2.5161Y0.5976
M15
G01X2.4889Y0.6024
M16
G05
G00X2.6465Y1.3369
M15
G01X2.6194Y1.3417
M16
G05
G00X2.755Y-0.2063
M15
G01X2.7279Y-0.2015
M16
G05
G00X2.7767Y2.0748
M15
G01X2.7496Y2.0796
M16
G05
G00X4.2804Y2.1557
M15
G01X4.2533Y2.1509
M16
G05
G00X4.3009Y-0.1275
M15
G01X4.2738Y-0.1323
M16
G05
G00X4.4108Y1.4171
M15
G01X4.3836Y1.4123
M16
G05
G00X4.5411Y0.6789
M15
G01X4.5139Y0.6741
M16
G05
G00X4.9539Y2.6552
M15
G01X4.9268Y2.6504
M16
G05
G00X5.0844Y1.9171
M15
G01X5.0572Y1.9123
M16
G05
G00X5.2147Y1.1781
M15
G01X5.1875Y1.1733
M16
G05
G00X5.345Y0.4395
M15
G01X5.3179Y0.4348
M16
G05
G00X5.6277Y3.1549
M15
G01X5.6005Y3.1501
M16
G05
G00X5.758Y2.4163
M15
G01X5.7309Y2.4115
M16
G05
G00X5.8883Y1.6777
M15
G01X5.8612Y1.6729
M16
G05
G00X6.0182Y0.9391
M15
G01X5.9911Y0.9344
M16
G05
G00X6.4312Y2.9155
M15
G01X6.4041Y2.9107
M16
G05
G00X6.5615Y2.1773
M15
G01X6.5344Y2.1725
M16
G05
G00X6.6919Y1.4388
M15
G01X6.6647Y1.434
M16
G05
G00X6.8222Y0.7002
M15
G01X6.795Y0.6954
M16
G05
G00X7.2025Y2.8616
M15
G01X7.1753Y2.8568
M16
G05
G00X7.3324Y2.1226
M15
G01X7.3053Y2.1178
M16
G05
G00X7.463Y1.3839
M15
G01X7.4358Y1.3791
M16
G05
G00X7.5934Y0.6454
M15
G01X7.5663Y0.6407
M16
G05
G00X8.0063Y2.6225
M15
G01X7.9791Y2.6177
M16
G05
G00X8.1363Y1.8836
M15
G01X8.1092Y1.8788
M16
G05
G00X8.2667Y1.145
M15
G01X8.2395Y1.1403
M16
G05
T0
M30
