%TF.GenerationSoftware,KiCad,Pcbnew,7.0.5*%
%TF.CreationDate,2023-06-27T22:08:49+09:00*%
%TF.ProjectId,keyboard_011 rev.1.2,6b657962-6f61-4726-945f-303131207265,REV1*%
%TF.SameCoordinates,Original*%
%TF.FileFunction,Soldermask,Bot*%
%TF.FilePolarity,Negative*%
%FSLAX46Y46*%
G04 Gerber Fmt 4.6, Leading zero omitted, Abs format (unit mm)*
G04 Created by KiCad (PCBNEW 7.0.5) date 2023-06-27 22:08:49*
%MOMM*%
%LPD*%
G01*
G04 APERTURE LIST*
G04 Aperture macros list*
%AMHorizOval*
0 Thick line with rounded ends*
0 $1 width*
0 $2 $3 position (X,Y) of the first rounded end (center of the circle)*
0 $4 $5 position (X,Y) of the second rounded end (center of the circle)*
0 Add line between two ends*
20,1,$1,$2,$3,$4,$5,0*
0 Add two circle primitives to create the rounded ends*
1,1,$1,$2,$3*
1,1,$1,$4,$5*%
%AMRotRect*
0 Rectangle, with rotation*
0 The origin of the aperture is its center*
0 $1 length*
0 $2 width*
0 $3 Rotation angle, in degrees counterclockwise*
0 Add horizontal line*
21,1,$1,$2,0,0,$3*%
G04 Aperture macros list end*
%ADD10C,1.900000*%
%ADD11C,3.000000*%
%ADD12C,5.000000*%
%ADD13HorizOval,1.500000X-0.344683X-0.060777X0.344683X0.060777X0*%
%ADD14RotRect,2.600000X2.600000X190.000000*%
%ADD15HorizOval,1.500000X-0.344683X0.060777X0.344683X-0.060777X0*%
%ADD16RotRect,2.600000X2.600000X170.000000*%
%ADD17O,2.748280X1.998980*%
G04 APERTURE END LIST*
D10*
%TO.C,SW10*%
X172584557Y65780635D03*
D11*
X173719459Y62223670D03*
D12*
X178001000Y66735700D03*
D11*
X179025524Y60925334D03*
D10*
X183417443Y67690765D03*
D13*
X182598442Y72623486D03*
D14*
X170469594Y61650631D03*
X182275390Y61498373D03*
%TD*%
D10*
%TO.C,SW32*%
X139204557Y35710635D03*
D11*
X140339459Y32153670D03*
D12*
X144621000Y36665700D03*
D11*
X145645524Y30855334D03*
D10*
X150037443Y37620765D03*
D13*
X149218442Y42553486D03*
D14*
X137089594Y31580631D03*
X148895390Y31428373D03*
%TD*%
D10*
%TO.C,SW39*%
X31403157Y6165565D03*
D11*
X31253063Y2434952D03*
D12*
X36819600Y5210500D03*
D11*
X35795076Y-599866D03*
D10*
X42236043Y4255435D03*
D15*
X43153524Y9170791D03*
D16*
X28003197Y3007991D03*
X39044941Y-1172905D03*
%TD*%
D12*
%TO.C,H6*%
X193506200Y21117800D03*
%TD*%
D10*
%TO.C,SW30*%
X104984557Y10340635D03*
D11*
X106119459Y6783670D03*
D12*
X110401000Y11295700D03*
D11*
X111425524Y5485334D03*
D10*
X115817443Y12250765D03*
D13*
X114998442Y17183486D03*
D14*
X102869594Y6210631D03*
X114675390Y6058373D03*
%TD*%
D10*
%TO.C,SW17*%
X55126757Y31012365D03*
D11*
X54976663Y27281752D03*
D12*
X60543200Y30057300D03*
D11*
X59518676Y24246934D03*
D10*
X65959643Y29102235D03*
D15*
X66877124Y34017591D03*
D16*
X51726797Y27854791D03*
X62768541Y23673895D03*
%TD*%
D10*
%TO.C,SW40*%
X57883157Y-8184435D03*
D11*
X57733063Y-11915048D03*
D12*
X63299600Y-9139500D03*
D11*
X62275076Y-14949866D03*
D10*
X68716043Y-10094565D03*
D15*
X69633524Y-5179209D03*
D16*
X54483197Y-11342009D03*
X65524941Y-15522905D03*
%TD*%
D10*
%TO.C,SW35*%
X199614557Y22180635D03*
D11*
X200749459Y18623670D03*
D12*
X205031000Y23135700D03*
D11*
X206055524Y17325334D03*
D10*
X210447443Y24090765D03*
D13*
X209628442Y29023486D03*
D14*
X197499594Y18050631D03*
X209305390Y17898373D03*
%TD*%
D10*
%TO.C,SW33*%
X159614557Y29640635D03*
D11*
X160749459Y26083670D03*
D12*
X165031000Y30595700D03*
D11*
X166055524Y24785334D03*
D10*
X170447443Y31550765D03*
D13*
X169628442Y36483486D03*
D14*
X157499594Y25510631D03*
X169305390Y25358373D03*
%TD*%
D10*
%TO.C,SW28*%
X34713157Y24925565D03*
D11*
X34563063Y21194952D03*
D12*
X40129600Y23970500D03*
D11*
X39105076Y18160134D03*
D10*
X45546043Y23015435D03*
D15*
X46463524Y27930791D03*
D16*
X31313197Y21767991D03*
X42354941Y17587095D03*
%TD*%
D10*
%TO.C,SW41*%
X98885157Y-10141365D03*
D11*
X100020059Y-13698330D03*
D12*
X104301600Y-9186300D03*
D11*
X105326124Y-14996666D03*
D10*
X109718043Y-8231235D03*
D13*
X108899042Y-3298514D03*
D14*
X96770194Y-14271369D03*
X108575990Y-14423627D03*
%TD*%
D10*
%TO.C,SW36*%
X-25706843Y11405565D03*
D11*
X-25856937Y7674952D03*
D12*
X-20290400Y10450500D03*
D11*
X-21314924Y4640134D03*
D10*
X-14873957Y9495435D03*
D15*
X-13956476Y14410791D03*
D16*
X-29106803Y8247991D03*
X-18065059Y4067095D03*
%TD*%
D10*
%TO.C,SW25*%
X-22396843Y30155565D03*
D11*
X-22546937Y26424952D03*
D12*
X-16980400Y29200500D03*
D11*
X-18004924Y23390134D03*
D10*
X-11563957Y28245435D03*
D15*
X-10646476Y33160791D03*
D16*
X-25796803Y26997991D03*
X-14755059Y22817095D03*
%TD*%
D10*
%TO.C,SW26*%
X-2813243Y31542465D03*
D11*
X-2963337Y27811852D03*
D12*
X2603200Y30587400D03*
D11*
X1578676Y24777034D03*
D10*
X8019643Y29632335D03*
D15*
X8937124Y34547691D03*
D16*
X-6213203Y28384891D03*
X4828541Y24203995D03*
%TD*%
D10*
%TO.C,SW11*%
X193000957Y59707435D03*
D11*
X194135859Y56150470D03*
D12*
X198417400Y60662500D03*
D11*
X199441924Y54852134D03*
D10*
X203833843Y61617565D03*
D13*
X203014842Y66550286D03*
D14*
X190885994Y55577431D03*
X202691790Y55425173D03*
%TD*%
D10*
%TO.C,SW7*%
X115470957Y60537435D03*
D11*
X116605859Y56980470D03*
D12*
X120887400Y61492500D03*
D11*
X121911924Y55682134D03*
D10*
X126303843Y62447565D03*
D13*
X125484842Y67380286D03*
D14*
X113355994Y56407431D03*
X125161790Y56255173D03*
%TD*%
D10*
%TO.C,SW15*%
X20913157Y56375565D03*
D11*
X20763063Y52644952D03*
D12*
X26329600Y55420500D03*
D11*
X25305076Y49610134D03*
D10*
X31746043Y54465435D03*
D15*
X32663524Y59380791D03*
D16*
X17513197Y53217991D03*
X28554941Y49037095D03*
%TD*%
D12*
%TO.C,H4*%
X-25949800Y21117700D03*
%TD*%
D10*
%TO.C,SW5*%
X58433157Y49755565D03*
D11*
X58283063Y46024952D03*
D12*
X63849600Y48800500D03*
D11*
X62825076Y42990134D03*
D10*
X69266043Y47845435D03*
D15*
X70183524Y52760791D03*
D16*
X55033197Y46597991D03*
X66074941Y42417095D03*
%TD*%
D10*
%TO.C,SW1*%
X-15776843Y67675565D03*
D11*
X-15926937Y63944952D03*
D12*
X-10360400Y66720500D03*
D11*
X-11384924Y60910134D03*
D10*
X-4943957Y65765435D03*
D15*
X-4026476Y70680791D03*
D16*
X-19176803Y64517991D03*
X-8135059Y60337095D03*
%TD*%
D10*
%TO.C,SW13*%
X-19086843Y48915565D03*
D11*
X-19236937Y45184952D03*
D12*
X-13670400Y47960500D03*
D11*
X-14694924Y42150134D03*
D10*
X-8253957Y47005435D03*
D15*
X-7336476Y51920791D03*
D16*
X-22486803Y45757991D03*
X-11445059Y41577095D03*
%TD*%
D10*
%TO.C,SW37*%
X-6116843Y12775565D03*
D11*
X-6266937Y9044952D03*
D12*
X-700400Y11820500D03*
D11*
X-1724924Y6010134D03*
D10*
X4716043Y10865435D03*
D15*
X5633524Y15780791D03*
D16*
X-9516803Y9617991D03*
X1524941Y5437095D03*
%TD*%
D12*
%TO.C,H1*%
X54822200Y40675700D03*
%TD*%
D10*
%TO.C,SW29*%
X51813157Y12235565D03*
D11*
X51663063Y8504952D03*
D12*
X57229600Y11280500D03*
D11*
X56205076Y5470134D03*
D10*
X62646043Y10325435D03*
D15*
X63563524Y15240791D03*
D16*
X48413197Y9077991D03*
X59454941Y4897095D03*
%TD*%
D10*
%TO.C,SW19*%
X118784557Y41790635D03*
D11*
X119919459Y38233670D03*
D12*
X124201000Y42745700D03*
D11*
X125225524Y36935334D03*
D10*
X129617443Y43700765D03*
D13*
X128798442Y48633486D03*
D14*
X116669594Y37660631D03*
X128475390Y37508373D03*
%TD*%
D10*
%TO.C,SW2*%
X3803157Y69065565D03*
D11*
X3653063Y65334952D03*
D12*
X9219600Y68110500D03*
D11*
X8195076Y62300134D03*
D10*
X14636043Y67155435D03*
D15*
X15553524Y72070791D03*
D16*
X403197Y65907991D03*
X11444941Y61727095D03*
%TD*%
D10*
%TO.C,SW6*%
X98364557Y47850635D03*
D11*
X99499459Y44293670D03*
D12*
X103781000Y48805700D03*
D11*
X104805524Y42995334D03*
D10*
X109197443Y49760765D03*
D13*
X108378442Y54693486D03*
D14*
X96249594Y43720631D03*
X108055390Y43568373D03*
%TD*%
D10*
%TO.C,SW43*%
X142504557Y16950635D03*
D11*
X143639459Y13393670D03*
D12*
X147921000Y17905700D03*
D11*
X148945524Y12095334D03*
D10*
X153337443Y18860765D03*
D13*
X152518442Y23793486D03*
D14*
X140389594Y12820631D03*
X152195390Y12668373D03*
%TD*%
D10*
%TO.C,SW22*%
X175884557Y47010635D03*
D11*
X177019459Y43453670D03*
D12*
X181301000Y47965700D03*
D11*
X182325524Y42155334D03*
D10*
X186717443Y48920765D03*
D13*
X185898442Y53853486D03*
D14*
X173769594Y42880631D03*
X185575390Y42728373D03*
%TD*%
D10*
%TO.C,SW14*%
X493157Y50305565D03*
D11*
X343063Y46574952D03*
D12*
X5909600Y49350500D03*
D11*
X4885076Y43540134D03*
D10*
X11326043Y48395435D03*
D15*
X12243524Y53310791D03*
D16*
X-2906803Y47147991D03*
X8134941Y42967095D03*
%TD*%
D10*
%TO.C,SW18*%
X101674557Y29090635D03*
D11*
X102809459Y25533670D03*
D12*
X107091000Y30045700D03*
D11*
X108115524Y24235334D03*
D10*
X112507443Y31000765D03*
D13*
X111688442Y35933486D03*
D14*
X99559594Y24960631D03*
X111365390Y24808373D03*
%TD*%
D10*
%TO.C,SW34*%
X179200957Y28247435D03*
D11*
X180335859Y24690470D03*
D12*
X184617400Y29202500D03*
D11*
X185641924Y23392134D03*
D10*
X190033843Y30157565D03*
D13*
X189214842Y35090286D03*
D14*
X177085994Y24117431D03*
X188891790Y23965173D03*
%TD*%
D10*
%TO.C,SW44*%
X162924557Y10880635D03*
D11*
X164059459Y7323670D03*
D12*
X168341000Y11835700D03*
D11*
X169365524Y6025334D03*
D10*
X173757443Y12790765D03*
D13*
X172938442Y17723486D03*
D14*
X160809594Y6750631D03*
X172615390Y6598373D03*
%TD*%
D10*
%TO.C,SW12*%
X-39506843Y42845565D03*
D11*
X-39656937Y39114952D03*
D12*
X-34090400Y41890500D03*
D11*
X-35114924Y36080134D03*
D10*
X-28673957Y40935435D03*
D15*
X-27756476Y45850791D03*
D16*
X-42906803Y39687991D03*
X-31865059Y35507095D03*
%TD*%
D10*
%TO.C,SW27*%
X17603157Y37615565D03*
D11*
X17453063Y33884952D03*
D12*
X23019600Y36660500D03*
D11*
X21995076Y30850134D03*
D10*
X28436043Y35705435D03*
D15*
X29353524Y40620791D03*
D16*
X14203197Y34457991D03*
X25244941Y30277095D03*
%TD*%
D12*
%TO.C,H7*%
X119338200Y3591700D03*
%TD*%
D10*
%TO.C,SW3*%
X24223157Y75135565D03*
D11*
X24073063Y71404952D03*
D12*
X29639600Y74180500D03*
D11*
X28615076Y68370134D03*
D10*
X35056043Y73225435D03*
D15*
X35973524Y78140791D03*
D16*
X20823197Y71977991D03*
X31864941Y67797095D03*
%TD*%
D10*
%TO.C,SW4*%
X41333157Y62445565D03*
D11*
X41183063Y58714952D03*
D12*
X46749600Y61490500D03*
D11*
X45725076Y55680134D03*
D10*
X52166043Y60535435D03*
D15*
X53083524Y65450791D03*
D16*
X37933197Y59287991D03*
X48974941Y55107095D03*
%TD*%
D10*
%TO.C,SW9*%
X152994557Y67150635D03*
D11*
X154129459Y63593670D03*
D12*
X158411000Y68105700D03*
D11*
X159435524Y62295334D03*
D10*
X163827443Y69060765D03*
D13*
X163008442Y73993486D03*
D14*
X150879594Y63020631D03*
X162685390Y62868373D03*
%TD*%
D12*
%TO.C,H3*%
X186902200Y58709700D03*
%TD*%
%TO.C,H2*%
X112734200Y40675700D03*
%TD*%
%TO.C,H0*%
X-19345800Y58709700D03*
%TD*%
D10*
%TO.C,SW8*%
X132584557Y73230635D03*
D11*
X133719459Y69673670D03*
D12*
X138001000Y74185700D03*
D11*
X139025524Y68375334D03*
D10*
X143417443Y75140765D03*
D13*
X142598442Y80073486D03*
D14*
X130469594Y69100631D03*
X142275390Y68948373D03*
%TD*%
D10*
%TO.C,SW16*%
X38016757Y43692465D03*
D11*
X37866663Y39961852D03*
D12*
X43433200Y42737400D03*
D11*
X42408676Y36927034D03*
D10*
X48849643Y41782335D03*
D15*
X49767124Y46697691D03*
D16*
X34616797Y40534891D03*
X45658541Y36353995D03*
%TD*%
D17*
%TO.C,U0*%
X76018700Y52153800D03*
X76018700Y49613800D03*
X76018700Y47073800D03*
X76018700Y44533800D03*
X76018700Y41993800D03*
X76018700Y39453800D03*
X76018700Y36913800D03*
X92207900Y36913800D03*
X92207900Y39453800D03*
X92207900Y41993800D03*
X92207900Y44533800D03*
X92207900Y47073800D03*
X92182500Y49613800D03*
X92207900Y52153800D03*
%TD*%
D10*
%TO.C,SW20*%
X135894557Y54470635D03*
D11*
X137029459Y50913670D03*
D12*
X141311000Y55425700D03*
D11*
X142335524Y49615334D03*
D10*
X146727443Y56380765D03*
D13*
X145908442Y61313486D03*
D14*
X133779594Y50340631D03*
X145585390Y50188373D03*
%TD*%
D10*
%TO.C,SW21*%
X156304557Y48400635D03*
D11*
X157439459Y44843670D03*
D12*
X161721000Y49355700D03*
D11*
X162745524Y43545334D03*
D10*
X167137443Y50310765D03*
D13*
X166318442Y55243486D03*
D14*
X154189594Y44270631D03*
X165995390Y44118373D03*
%TD*%
D10*
%TO.C,SW38*%
X14296757Y18852465D03*
D11*
X14146663Y15121852D03*
D12*
X19713200Y17897400D03*
D11*
X18688676Y12087034D03*
D10*
X25129643Y16942335D03*
D15*
X26047124Y21857691D03*
D16*
X10896797Y15694891D03*
X21938541Y11513995D03*
%TD*%
D10*
%TO.C,SW24*%
X-42816843Y24085565D03*
D11*
X-42966937Y20354952D03*
D12*
X-37400400Y23130500D03*
D11*
X-38424924Y17320134D03*
D10*
X-31983957Y22175435D03*
D15*
X-31066476Y27090791D03*
D16*
X-46216803Y20927991D03*
X-35175059Y16747095D03*
%TD*%
D10*
%TO.C,SW31*%
X122094557Y23020635D03*
D11*
X123229459Y19463670D03*
D12*
X127511000Y23975700D03*
D11*
X128535524Y18165334D03*
D10*
X132927443Y24930765D03*
D13*
X132108442Y29863486D03*
D14*
X119979594Y18890631D03*
X131785390Y18738373D03*
%TD*%
D12*
%TO.C,H5*%
X47964200Y3083700D03*
%TD*%
D10*
%TO.C,SW45*%
X182514557Y9490635D03*
D11*
X183649459Y5933670D03*
D12*
X187931000Y10445700D03*
D11*
X188955524Y4635334D03*
D10*
X193347443Y11400765D03*
D13*
X192528442Y16333486D03*
D14*
X180399594Y5360631D03*
X192205390Y5208373D03*
%TD*%
D10*
%TO.C,SW42*%
X125404557Y4260635D03*
D11*
X126539459Y703670D03*
D12*
X130821000Y5215700D03*
D11*
X131845524Y-594666D03*
D10*
X136237443Y6170765D03*
D13*
X135418442Y11103486D03*
D14*
X123289594Y130631D03*
X135095390Y-21627D03*
%TD*%
D10*
%TO.C,SW23*%
X196304557Y40940635D03*
D11*
X197439459Y37383670D03*
D12*
X201721000Y41895700D03*
D11*
X202745524Y36085334D03*
D10*
X207137443Y42850765D03*
D13*
X206318442Y47783486D03*
D14*
X194189594Y36810631D03*
X205995390Y36658373D03*
%TD*%
D10*
%TO.C,SW0*%
X-36196843Y61605565D03*
D11*
X-36346937Y57874952D03*
D12*
X-30780400Y60650500D03*
D11*
X-31804924Y54840134D03*
D10*
X-25363957Y59695435D03*
D15*
X-24446476Y64610791D03*
D16*
X-39596803Y58447991D03*
X-28555059Y54267095D03*
%TD*%
M02*
