M48
INCH
T1C0.0138
T2C0.0394
T3C0.0886
%
G90
G05
T1
X-1.1405Y1.3593
X-1.0863Y0.3959
X-0.9506Y1.6952
X-0.9064Y0.7227
X-0.6764Y1.5831
X-0.4634Y0.3545
X-0.2512Y1.2175
X-0.0917Y2.1233
X0.0253Y1.6549
X0.6717Y0.5786
X0.7082Y1.6549
X0.7234Y1.9882
X0.727Y1.0369
X0.9538Y0.4514
X1.0671Y0.2896
X1.0678Y0.715
X1.3118Y1.1664
X1.4545Y0.8258
X1.537Y1.3461
X1.5499Y1.3078
X1.651Y0.6117
X1.7496Y0.0155
X2.1353Y0.3309
X2.2527Y-0.1997
X2.3643Y0.5736
X2.3694Y0.3576
X2.4838Y-0.2162
X2.72Y1.0304
X2.8357Y0.5543
X2.9407Y0.5543
X2.9852Y0.8558
X3.043Y-0.083
X3.0789Y1.0564
X3.0937Y0.2861
X3.0962Y0.8418
X3.1049Y0.7834
X3.183Y0.5164
X3.2007Y0.3301
X3.2322Y0.7577
X3.233Y-0.583
X3.2734Y0.5007
X3.3Y1.3255
X3.3034Y0.1727
X3.3348Y0.4761
X3.3904Y0.2059
X3.4169Y0.0825
X3.4542Y1.2669
X3.4542Y0.686
X3.5105Y0.7931
X3.5207Y0.9668
X3.5279Y0.8677
X3.5433Y0.7834
X3.5651Y0.5915
X3.6173Y0.4058
X3.6466Y-0.0362
X3.6479Y0.381
X3.703Y-0.123
X3.7314Y0.9849
X3.7452Y0.6442
X3.7667Y0.094
X3.7678Y0.3651
X3.7686Y0.678
X3.7782Y0.7181
X3.8154Y1.203
X3.9669Y0.2723
X3.983Y0.157
X4.0017Y0.8352
X4.0891Y1.1078
X4.1186Y0.093
X4.2356Y0.1326
X4.3558Y0.7149
X4.4695Y0.5519
X4.5015Y0.5409
X4.5501Y-0.0664
X4.5573Y1.2157
X4.5711Y-0.1016
X4.5789Y1.5787
X4.6886Y0.5995
X4.7034Y0.0142
X4.7442Y0.5873
X4.9133Y0.0881
X5.0083Y2.0522
X5.2119Y2.0642
X5.3643Y1.4207
X5.5573Y0.5838
X5.639Y1.0694
X5.9899Y2.0062
X6.2245Y1.2192
X6.2672Y2.1233
X6.6159Y0.604
X6.8904Y0.8511
X6.9255Y0.8585
X7.0424Y1.4207
X7.2685Y0.4233
X7.322Y1.5587
X7.7737Y1.3825
X7.8438Y1.5622
X8.2042Y0.6054
T2
X3.0125Y2.0533
X3.0125Y1.9533
X3.0125Y1.8533
X3.0125Y1.7533
X3.0125Y1.6533
X3.0125Y1.5533
X3.0125Y1.4533
X3.6095Y1.9533
X3.6105Y2.0533
X3.6105Y1.8533
X3.6105Y1.7533
X3.6105Y1.6533
X3.6105Y1.5533
X3.6105Y1.4533
T3
X-1.0216Y0.8314
X-0.7616Y2.3114
X1.8884Y0.1214
X2.1584Y1.6014
X4.4384Y1.6014
X4.6984Y0.1414
X7.3584Y2.3114
X7.6184Y0.8314
T0
M30
