%TF.GenerationSoftware,KiCad,Pcbnew,7.0.5*%
%TF.CreationDate,2023-10-19T00:16:17+09:00*%
%TF.ProjectId,keyboard_011 rev.2.0,6b657962-6f61-4726-945f-303131207265,Rev.2.0*%
%TF.SameCoordinates,Original*%
%TF.FileFunction,Soldermask,Bot*%
%TF.FilePolarity,Negative*%
%FSLAX46Y46*%
G04 Gerber Fmt 4.6, Leading zero omitted, Abs format (unit mm)*
G04 Created by KiCad (PCBNEW 7.0.5) date 2023-10-19 00:16:17*
%MOMM*%
%LPD*%
G01*
G04 APERTURE LIST*
G04 Aperture macros list*
%AMRotRect*
0 Rectangle, with rotation*
0 The origin of the aperture is its center*
0 $1 length*
0 $2 width*
0 $3 Rotation angle, in degrees counterclockwise*
0 Add horizontal line*
21,1,$1,$2,0,0,$3*%
G04 Aperture macros list end*
%ADD10C,3.000000*%
%ADD11RotRect,2.600000X2.600000X190.000000*%
%ADD12RotRect,2.600000X2.600000X170.000000*%
%ADD13C,5.000000*%
%ADD14O,2.748280X1.998980*%
G04 APERTURE END LIST*
D10*
%TO.C,SW42*%
X90663459Y-15301830D03*
X95969524Y-16600166D03*
D11*
X87413594Y-15874869D03*
X99219390Y-16027127D03*
%TD*%
D10*
%TO.C,SW41*%
X67113463Y-13555548D03*
X71655476Y-16590366D03*
D12*
X63863597Y-12982509D03*
X74905341Y-17163405D03*
%TD*%
D10*
%TO.C,SW47*%
X183649459Y5933670D03*
X188955524Y4635334D03*
D11*
X180399594Y5360631D03*
X192205390Y5208373D03*
%TD*%
D10*
%TO.C,SW46*%
X164059459Y7323670D03*
X169365524Y6025334D03*
D11*
X160809594Y6750631D03*
X172615390Y6598373D03*
%TD*%
D10*
%TO.C,SW45*%
X143639459Y13393670D03*
X148945524Y12095334D03*
D11*
X140389594Y12820631D03*
X152195390Y12668373D03*
%TD*%
D10*
%TO.C,SW44*%
X126539459Y703670D03*
X131845524Y-594666D03*
D11*
X123289594Y130631D03*
X135095390Y-21627D03*
%TD*%
D10*
%TO.C,SW43*%
X109458459Y-11954030D03*
X114764524Y-13252366D03*
D11*
X106208594Y-12527069D03*
X118014390Y-12679327D03*
%TD*%
D10*
%TO.C,SW40*%
X48352763Y-10261048D03*
X52894776Y-13295866D03*
D12*
X45102897Y-9688009D03*
X56144641Y-13868905D03*
%TD*%
D10*
%TO.C,SW39*%
X31253063Y2434952D03*
X35795076Y-599866D03*
D12*
X28003197Y3007991D03*
X39044941Y-1172905D03*
%TD*%
D10*
%TO.C,SW38*%
X14146663Y15121852D03*
X18688676Y12087034D03*
D12*
X10896797Y15694891D03*
X21938541Y11513995D03*
%TD*%
D10*
%TO.C,SW37*%
X-6266937Y9044952D03*
X-1724924Y6010134D03*
D12*
X-9516803Y9617991D03*
X1524941Y5437095D03*
%TD*%
D10*
%TO.C,SW36*%
X-25856937Y7674952D03*
X-21314924Y4640134D03*
D12*
X-29106803Y8247991D03*
X-18065059Y4067095D03*
%TD*%
D10*
%TO.C,SW35*%
X200749459Y18623670D03*
X206055524Y17325334D03*
D11*
X197499594Y18050631D03*
X209305390Y17898373D03*
%TD*%
D10*
%TO.C,SW34*%
X180335859Y24690470D03*
X185641924Y23392134D03*
D11*
X177085994Y24117431D03*
X188891790Y23965173D03*
%TD*%
D10*
%TO.C,SW33*%
X160749459Y26083670D03*
X166055524Y24785334D03*
D11*
X157499594Y25510631D03*
X169305390Y25358373D03*
%TD*%
D10*
%TO.C,SW32*%
X140339459Y32153670D03*
X145645524Y30855334D03*
D11*
X137089594Y31580631D03*
X148895390Y31428373D03*
%TD*%
D10*
%TO.C,SW31*%
X123229459Y19463670D03*
X128535524Y18165334D03*
D11*
X119979594Y18890631D03*
X131785390Y18738373D03*
%TD*%
D10*
%TO.C,SW30*%
X106119459Y6783670D03*
X111425524Y5485334D03*
D11*
X102869594Y6210631D03*
X114675390Y6058373D03*
%TD*%
D10*
%TO.C,SW29*%
X51663063Y8504952D03*
X56205076Y5470134D03*
D12*
X48413197Y9077991D03*
X59454941Y4897095D03*
%TD*%
D10*
%TO.C,SW28*%
X34563063Y21194952D03*
X39105076Y18160134D03*
D12*
X31313197Y21767991D03*
X42354941Y17587095D03*
%TD*%
D10*
%TO.C,SW27*%
X17453063Y33884952D03*
X21995076Y30850134D03*
D12*
X14203197Y34457991D03*
X25244941Y30277095D03*
%TD*%
D10*
%TO.C,SW26*%
X-2963337Y27811852D03*
X1578676Y24777034D03*
D12*
X-6213203Y28384891D03*
X4828541Y24203995D03*
%TD*%
D10*
%TO.C,SW25*%
X-22546937Y26424952D03*
X-18004924Y23390134D03*
D12*
X-25796803Y26997991D03*
X-14755059Y22817095D03*
%TD*%
D10*
%TO.C,SW24*%
X-42966937Y20354952D03*
X-38424924Y17320134D03*
D12*
X-46216803Y20927991D03*
X-35175059Y16747095D03*
%TD*%
D10*
%TO.C,SW23*%
X197439459Y37383670D03*
X202745524Y36085334D03*
D11*
X194189594Y36810631D03*
X205995390Y36658373D03*
%TD*%
D10*
%TO.C,SW22*%
X177019459Y43453670D03*
X182325524Y42155334D03*
D11*
X173769594Y42880631D03*
X185575390Y42728373D03*
%TD*%
D10*
%TO.C,SW21*%
X157439459Y44843670D03*
X162745524Y43545334D03*
D11*
X154189594Y44270631D03*
X165995390Y44118373D03*
%TD*%
D10*
%TO.C,SW20*%
X137029459Y50913670D03*
X142335524Y49615334D03*
D11*
X133779594Y50340631D03*
X145585390Y50188373D03*
%TD*%
D10*
%TO.C,SW19*%
X119919459Y38233670D03*
X125225524Y36935334D03*
D11*
X116669594Y37660631D03*
X128475390Y37508373D03*
%TD*%
D10*
%TO.C,SW18*%
X102809459Y25533670D03*
X108115524Y24235334D03*
D11*
X99559594Y24960631D03*
X111365390Y24808373D03*
%TD*%
D10*
%TO.C,SW17*%
X54976663Y27281752D03*
X59518676Y24246934D03*
D12*
X51726797Y27854791D03*
X62768541Y23673895D03*
%TD*%
D10*
%TO.C,SW16*%
X37866663Y39961852D03*
X42408676Y36927034D03*
D12*
X34616797Y40534891D03*
X45658541Y36353995D03*
%TD*%
D10*
%TO.C,SW15*%
X20763063Y52644952D03*
X25305076Y49610134D03*
D12*
X17513197Y53217991D03*
X28554941Y49037095D03*
%TD*%
D10*
%TO.C,SW14*%
X343063Y46574952D03*
X4885076Y43540134D03*
D12*
X-2906803Y47147991D03*
X8134941Y42967095D03*
%TD*%
D10*
%TO.C,SW13*%
X-19236937Y45184952D03*
X-14694924Y42150134D03*
D12*
X-22486803Y45757991D03*
X-11445059Y41577095D03*
%TD*%
D10*
%TO.C,SW12*%
X-39656937Y39114952D03*
X-35114924Y36080134D03*
D12*
X-42906803Y39687991D03*
X-31865059Y35507095D03*
%TD*%
D10*
%TO.C,SW11*%
X194135859Y56150470D03*
X199441924Y54852134D03*
D11*
X190885994Y55577431D03*
X202691790Y55425173D03*
%TD*%
D10*
%TO.C,SW10*%
X173719459Y62223670D03*
X179025524Y60925334D03*
D11*
X170469594Y61650631D03*
X182275390Y61498373D03*
%TD*%
D10*
%TO.C,SW9*%
X154129459Y63593670D03*
X159435524Y62295334D03*
D11*
X150879594Y63020631D03*
X162685390Y62868373D03*
%TD*%
D10*
%TO.C,SW8*%
X133719459Y69673670D03*
X139025524Y68375334D03*
D11*
X130469594Y69100631D03*
X142275390Y68948373D03*
%TD*%
D10*
%TO.C,SW7*%
X116605859Y56980470D03*
X121911924Y55682134D03*
D11*
X113355994Y56407431D03*
X125161790Y56255173D03*
%TD*%
D10*
%TO.C,SW6*%
X99499459Y44293670D03*
X104805524Y42995334D03*
D11*
X96249594Y43720631D03*
X108055390Y43568373D03*
%TD*%
D10*
%TO.C,SW5*%
X58283063Y46024952D03*
X62825076Y42990134D03*
D12*
X55033197Y46597991D03*
X66074941Y42417095D03*
%TD*%
D10*
%TO.C,SW4*%
X41183063Y58714952D03*
X45725076Y55680134D03*
D12*
X37933197Y59287991D03*
X48974941Y55107095D03*
%TD*%
D10*
%TO.C,SW3*%
X24073063Y71404952D03*
X28615076Y68370134D03*
D12*
X20823197Y71977991D03*
X31864941Y67797095D03*
%TD*%
D10*
%TO.C,SW2*%
X3653063Y65334952D03*
X8195076Y62300134D03*
D12*
X403197Y65907991D03*
X11444941Y61727095D03*
%TD*%
D10*
%TO.C,SW1*%
X-15926937Y63944952D03*
X-11384924Y60910134D03*
D12*
X-19176803Y64517991D03*
X-8135059Y60337095D03*
%TD*%
D10*
%TO.C,SW0*%
X-36346937Y57874952D03*
X-31804924Y54840134D03*
D12*
X-39596803Y58447991D03*
X-28555059Y54267095D03*
%TD*%
D13*
%TO.C,H6*%
X193506200Y21117800D03*
%TD*%
%TO.C,H4*%
X-25949800Y21117700D03*
%TD*%
%TO.C,H1*%
X54822200Y40675700D03*
%TD*%
%TO.C,H7*%
X119338200Y3591700D03*
%TD*%
%TO.C,H3*%
X186902200Y58709700D03*
%TD*%
%TO.C,H2*%
X112734200Y40675700D03*
%TD*%
%TO.C,H0*%
X-19345800Y58709700D03*
%TD*%
D14*
%TO.C,U0*%
X76018700Y52153800D03*
X76018700Y49613800D03*
X76018700Y47073800D03*
X76018700Y44533800D03*
X76018700Y41993800D03*
X76018700Y39453800D03*
X76018700Y36913800D03*
X92207900Y36913800D03*
X92207900Y39453800D03*
X92207900Y41993800D03*
X92207900Y44533800D03*
X92207900Y47073800D03*
X92182500Y49613800D03*
X92207900Y52153800D03*
%TD*%
D13*
%TO.C,H5*%
X47964200Y3083700D03*
%TD*%
M02*
