M48
INCH
T1C0.0748
T2C0.1181
T3C0.1969
%
G90
G05
T1
X-1.6857Y0.9483
X-1.5554Y1.6868
X-1.4251Y2.4254
X-1.2592Y0.873
X-1.1289Y1.6116
X-1.0121Y0.449
X-0.9986Y2.3502
X-0.8818Y1.1872
X-0.7515Y1.9258
X-0.6211Y2.6644
X-0.5856Y0.3738
X-0.4553Y1.112
X-0.325Y1.8506
X-0.2408Y0.503
X-0.1946Y2.5892
X-0.1108Y1.2418
X0.0194Y1.9805
X0.1497Y2.7191
X0.1857Y0.4278
X0.3157Y1.1666
X0.4459Y1.9053
X0.5629Y0.7422
X0.5762Y2.6439
X0.693Y1.4809
X0.8234Y2.2195
X0.9537Y2.9581
X0.9894Y0.667
X1.1195Y1.4057
X1.2363Y0.2427
X1.2498Y2.1443
X1.3667Y0.9813
X1.3802Y2.8829
X1.4967Y1.7202
X1.6273Y2.4585
X1.6628Y0.1675
X1.7932Y0.9061
X1.9096Y-0.2571
X1.9232Y1.645
X2.0399Y0.4817
X2.0538Y2.3833
X2.1703Y1.221
X2.3005Y1.9589
X2.3361Y-0.3323
X2.4664Y0.4065
X2.5968Y1.1458
X2.6482Y-0.3868
X2.727Y1.8837
X3.0747Y-0.462
X3.5247Y-0.4624
X3.8726Y1.8839
X3.9512Y-0.3872
X4.0029Y1.1453
X4.1333Y0.4071
X4.2647Y-0.3306
X4.2991Y1.9591
X4.4294Y1.2205
X4.5461Y2.3834
X4.5597Y0.4823
X4.6766Y1.6453
X4.6912Y-0.2554
X4.8069Y0.9063
X4.9372Y0.1677
X4.9726Y2.4586
X5.103Y1.7205
X5.2199Y2.8831
X5.2334Y0.9815
X5.3502Y2.1445
X5.3637Y0.2429
X5.4805Y1.4059
X5.6104Y0.6673
X5.6464Y2.9583
X5.7767Y2.2197
X5.907Y1.4811
X6.0234Y2.6437
X6.0369Y0.7425
X6.1537Y1.9055
X6.284Y1.167
X6.4144Y0.4284
X6.4499Y2.7189
X6.5802Y1.9807
X6.7105Y1.2422
X6.7947Y2.5898
X6.8408Y0.5036
X6.9246Y1.8508
X7.0552Y1.1121
X7.1856Y0.3736
X7.2212Y2.665
X7.3511Y1.926
X7.4816Y1.1873
X7.5985Y2.3507
X7.6121Y0.4488
X7.7285Y1.6118
X7.8588Y0.8733
X8.025Y2.4259
X8.155Y1.687
X8.2853Y0.9485
T2
X-1.6916Y0.8014
X-1.5613Y1.54
X-1.5128Y0.6819
X-1.431Y2.2785
X-1.3825Y1.4205
X-1.2522Y2.1591
X-1.018Y0.3022
X-0.8877Y1.0404
X-0.8392Y0.1827
X-0.7574Y1.7789
X-0.7089Y0.9209
X-0.627Y2.5175
X-0.5785Y1.6595
X-0.4482Y2.398
X-0.2467Y0.3561
X-0.1167Y1.095
X-0.0679Y0.2366
X0.0135Y1.8337
X0.0622Y0.9755
X0.1438Y2.5722
X0.1923Y1.7142
X0.3226Y2.4528
X0.557Y0.5953
X0.6871Y1.3341
X0.7358Y0.4759
X0.8174Y2.0726
X0.8659Y1.2146
X0.9478Y2.8112
X0.9963Y1.9532
X1.1266Y2.6917
X1.2304Y0.0959
X1.3608Y0.8344
X1.4093Y-0.0236
X1.4908Y1.5733
X1.5396Y0.715
X1.6214Y2.3116
X1.6696Y1.4538
X1.8002Y2.1921
X1.9037Y-0.404
X2.034Y0.3348
X2.0825Y-0.5235
X2.1644Y1.0741
X2.2128Y0.2154
X2.2946Y1.812
X2.3433Y0.9546
X2.4734Y1.6925
X2.6423Y-0.5337
X2.8211Y-0.6532
X3.5694Y-0.6024
X3.7783Y-0.6535
X3.9173Y1.7438
X4.0476Y1.0053
X4.1262Y1.6927
X4.1779Y0.2671
X4.2565Y0.9541
X4.3094Y-0.4706
X4.3868Y0.216
X4.5183Y-0.5217
X4.5908Y2.2433
X4.7212Y1.5053
X4.7997Y2.1922
X4.8516Y0.7663
X4.9301Y1.4541
X4.9819Y0.0277
X5.0605Y0.7152
X5.1908Y-0.0234
X5.2645Y2.7431
X5.3949Y2.0045
X5.4734Y2.6919
X5.5252Y1.2659
X5.6038Y1.9534
X5.6551Y0.5273
X5.7341Y1.2148
X5.864Y0.4762
X6.0681Y2.5037
X6.1984Y1.7655
X6.277Y2.4526
X6.3287Y1.0269
X6.4073Y1.7144
X6.459Y0.2883
X6.5376Y0.9758
X6.6679Y0.2372
X6.8393Y2.4498
X6.9693Y1.7108
X7.0482Y2.3986
X7.0998Y0.9721
X7.1782Y1.6597
X7.2303Y0.2336
X7.3087Y0.921
X7.4392Y0.1825
X7.6431Y2.2106
X7.7732Y1.4718
X7.852Y2.1595
X7.9035Y0.7332
X7.9821Y1.4207
X8.1124Y0.6821
T3
X-1.4725Y0.9106
X-1.3421Y1.6492
X-1.2118Y2.3878
X-0.7988Y0.4114
X-0.6685Y1.1496
X-0.5382Y1.8882
X-0.4079Y2.6268
X-0.0276Y0.4654
X0.1025Y1.2042
X0.2327Y1.9429
X0.363Y2.6815
X0.7761Y0.7046
X0.9063Y1.4433
X1.0366Y2.1819
X1.1669Y2.9205
X1.4496Y0.2051
X1.5799Y0.9437
X1.71Y1.6826
X1.8405Y2.4209
X2.1228Y-0.2947
X2.2531Y0.4441
X2.3836Y1.1834
X2.5138Y1.9213
X2.8614Y-0.4244
X3.738Y-0.4248
X4.0859Y1.9215
X4.2162Y1.1829
X4.3465Y0.4447
X4.478Y-0.293
X4.7593Y2.421
X4.8898Y1.6829
X5.0201Y0.9439
X5.1504Y0.2053
X5.4331Y2.9207
X5.5634Y2.1821
X5.6937Y1.4435
X5.8237Y0.7049
X6.2367Y2.6813
X6.367Y1.9431
X6.4973Y1.2046
X6.6276Y0.466
X7.0079Y2.6274
X7.1378Y1.8884
X7.2684Y1.1497
X7.3989Y0.4112
X7.8117Y2.3883
X7.9418Y1.6494
X8.0721Y0.9109
T0
M30
