0
SECTION
2
HEADER
9
$INSUNITS
70
4
9
$ACADVER
1
AC1014
9
$HANDSEED
5
FFFF
0
ENDSEC
0
SECTION
2
TABLES
0
TABLE
2
VPORT
5
8
100
AcDbSymbolTable
0
ENDTAB
0
TABLE
2
LTYPE
5
5
100
AcDbSymbolTable
0
LTYPE
5
14
100
AcDbSymbolTableRecord
100
AcDbLinetypeTableRecord
2
BYBLOCK
70
0
0
LTYPE
5
15
100
AcDbSymbolTableRecord
100
AcDbLinetypeTableRecord
2
BYLAYER
70
0
0
ENDTAB
0
TABLE
2
LAYER
5
2
100
AcDbSymbolTable
70
2
0
LAYER
5
50
100
AcDbSymbolTableRecord
100
AcDbLayerTableRecord
2
0
70
0
6
CONTINUOUS
0
ENDTAB
0
TABLE
2
STYLE
5
3
100
AcDbSymbolTable
70
1
0
STYLE
5
11
100
AcDbSymbolTableRecord
100
AcDbTextStyleTableRecord
2
STANDARD
70
0
0
ENDTAB
0
TABLE
2
VIEW
5
6
100
AcDbSymbolTable
70
0
0
ENDTAB
0
TABLE
2
UCS
5
7
100
AcDbSymbolTable
70
0
0
ENDTAB
0
TABLE
2
APPID
5
9
100
AcDbSymbolTable
70
2
0
APPID
5
12
100
AcDbSymbolTableRecord
100
AcDbRegAppTableRecord
2
ACAD
70
0
0
ENDTAB
0
TABLE
2
DIMSTYLE
5
A
100
AcDbSymbolTable
70
1
0
ENDTAB
0
TABLE
2
BLOCK_RECORD
5
1
100
AcDbSymbolTable
70
1
0
BLOCK_RECORD
5
1F
100
AcDbSymbolTableRecord
100
AcDbBlockTableRecord
2
*MODEL_SPACE
0
BLOCK_RECORD
5
1B
100
AcDbSymbolTableRecord
100
AcDbBlockTableRecord
2
*PAPER_SPACE
0
ENDTAB
0
ENDSEC
0
SECTION
2
BLOCKS
0
BLOCK
5
20
100
AcDbEntity
100
AcDbBlockBegin
2
*MODEL_SPACE
0
ENDBLK
5
21
100
AcDbEntity
100
AcDbBlockEnd
0
BLOCK
5
1C
100
AcDbEntity
100
AcDbBlockBegin
2
*PAPER_SPACE
0
ENDBLK
5
1D
100
AcDbEntity
100
AcDbBlockEnd
0
ENDSEC
0
SECTION
2
ENTITIES
0
LWPOLYLINE
5
100
100
AcDbEntity
8
0
100
AcDbPolyline
90
4
70
1
43
0.0
10
100.10899999999999
20
45.581400000000009
10
97.678200000000004
20
31.794100000000004
10
83.890900000000016
20
34.224899999999998
10
86.321500000000015
20
48.0124
0
LWPOLYLINE
5
101
100
AcDbEntity
8
0
100
AcDbPolyline
90
4
70
1
43
0.0
10
87.1982
20
52.986900000000006
10
89.628799999999998
20
66.7727
10
103.416
20
64.342100000000002
10
100.98500000000001
20
50.5548
0
LWPOLYLINE
5
102
100
AcDbEntity
8
0
100
AcDbPolyline
90
4
70
1
43
0.0
10
265.89390414252284
20
65.934899999999999
10
268.32479414252282
20
52.147599999999997
10
254.53750414252283
20
49.716999999999999
10
252.1067041425228
20
63.502800000000008
0
LWPOLYLINE
5
103
100
AcDbEntity
8
0
100
AcDbPolyline
90
4
70
1
43
0.0
10
156.5990041425228
20
56.627900000000004
10
154.16900414252282
20
70.413700000000006
10
167.9550041425228
20
72.845799999999997
10
170.38800414252279
20
59.058500000000009
0
LWPOLYLINE
5
104
100
AcDbEntity
8
0
100
AcDbPolyline
90
4
70
1
43
0.0
10
228.3232041425228
20
59.602900000000005
10
214.53600414252281
20
57.1708
10
212.1050041425228
20
70.958100000000002
10
225.8908041425228
20
73.3887
0
LWPOLYLINE
5
105
100
AcDbEntity
8
0
100
AcDbPolyline
90
4
70
1
43
0.0
10
217.84330414252281
20
38.4101
10
215.41230414252283
20
52.197400000000009
10
229.19950414252281
20
54.628300000000003
10
231.63050414252282
20
40.841099999999997
0
LWPOLYLINE
5
106
100
AcDbEntity
8
0
100
AcDbPolyline
90
4
70
1
43
0.0
10
171.26400414252282
20
54.085400000000007
10
173.69500414252281
20
40.297800000000009
10
159.9080041425228
20
37.8658
10
157.47700414252282
20
51.654400000000003
0
LWPOLYLINE
5
107
100
AcDbEntity
8
0
100
AcDbPolyline
90
4
70
1
43
0.0
10
180.32180414252281
20
31.794100000000004
10
177.89100414252283
20
45.581400000000009
10
191.6785041425228
20
48.0124
10
194.10910414252277
20
34.224899999999998
0
LWPOLYLINE
5
108
100
AcDbEntity
8
0
100
AcDbPolyline
90
102
70
1
43
0.0
10
234.7294921786787
20
37.808460037742087
10
235.21016642505919
20
35.087273945126555
42
0.4141281883978632
10
236.36858262120529
20
34.276417034845601
10
253.15812300372045
20
37.237099234637739
42
0.41419074854314752
10
253.96928049510933
20
38.39548938494638
10
252.66288950460816
20
45.807192796537059
42
-0.41420440312110873
10
253.47409290798373
20
46.965591041902016
10
270.26503742209422
20
49.925713715465641
42
0.41422158136542697
10
271.07623064299332
20
51.084169720377737
10
261.49986234155591
20
105.39628532321709
42
0.41421374838539216
10
260.34141046490356
20
106.20745147121136
10
243.5505865707722
20
103.24686507020219
42
-0.41421210921950102
10
242.39213566591934
20
104.05802570675164
10
241.08531655371559
20
111.46937264959085
42
0.41422907827424182
10
239.92680859358711
20
112.28052322435363
10
223.13493745916679
20
109.31874906808272
42
-0.41420096051908672
10
221.97644617377151
20
110.12980510217534
10
221.49646612374573
20
112.85038269949069
42
0.41418944144871989
10
220.338013569704
20
113.66144556428929
10
203.5487697307006
20
110.70081565723885
42
-0.41422810414585798
10
202.3902942506748
20
111.51200851908104
10
201.08394950164552
20
118.92222529724742
42
0.41421756893007911
10
199.92550944443491
20
119.7334244049229
10
183.13311035951608
20
116.77286088730065
42
0.41422337085392236
10
182.3219305382774
20
115.61439022566118
10
183.62871314181359
20
108.20373412843743
42
-0.41421792214950681
10
182.81755164094434
20
107.04526669692412
10
166.02766030592815
20
104.08482325406233
42
0.41419692751063986
10
165.21648635962617
20
102.92642641436234
10
166.52261733421574
20
95.516359878258726
42
-0.41419620094217591
10
165.71144583091728
20
94.357963469319543
10
148.91914840227042
20
91.397052825304115
42
0.41374586186340623
10
148.10771111628276
20
90.240171091759791
10
157.33591821936324
20
37.41072665290266
42
-0.41375167199922724
10
156.5244613912422
20
36.25384147378135
10
139.17362931551742
20
33.194801921101103
42
-0.087477954033543776
10
138.82637482700656
20
33.194801921101103
10
121.30453315007229
20
36.283991332399232
42
-0.41468273079606
10
120.49362829047365
20
37.44400704703331
10
129.88861054653509
20
90.237592545271838
42
0.41467691683383734
10
129.07772522906987
20
91.397604814328872
10
112.2885583116055
20
94.357963469319515
42
-0.41419620094216808
10
111.47738680830706
20
95.51635987825874
10
112.78351778289661
20
102.92642641436237
42
0.41419692751062864
10
111.97234383659466
20
104.08482325406229
10
95.182452501578453
20
107.04526669692412
42
-0.41421792214950437
10
94.371291000709206
20
108.20373412843745
10
95.678073604245455
20
115.61439022566117
42
0.41422337085393174
10
94.866893783006745
20
116.77286088730065
10
78.074494698087904
20
119.73342440492289
42
0.41421756893007611
10
76.91605464087732
20
118.92222529724742
10
75.609709891848055
20
111.51200851908104
42
-0.41422810414584438
10
74.451234411822213
20
110.70081565723881
10
57.661990572818802
20
113.66144556428935
42
0.41418944144871522
10
56.503538018777007
20
112.85038269949069
10
56.023557968751298
20
110.12980510217534
42
-0.41420096051907651
10
54.865066683356005
20
109.31874906808274
10
38.073195548935701
20
112.28052322435362
42
0.41422907827425232
10
36.914687588807233
20
111.46937264959084
10
35.607868476603464
20
104.05802570675164
42
-0.41421210921950757
10
34.449417571750629
20
103.24686507020223
10
17.658593677619265
20
106.20745147121139
42
0.41421374838538938
10
16.500141800966897
20
105.39628532321709
10
6.9237734995294975
20
51.084169720377737
42
0.4142215813654333
10
7.734966720428571
20
49.925713715465633
10
24.525911234539059
20
46.965591041902016
42
-0.41420440312110873
10
25.337114637914667
20
45.807192796537059
10
24.030723647413478
20
38.39548938494638
42
0.4141907485431422
10
24.841881138802346
20
37.237099234637739
10
41.63142152131752
20
34.276417034845586
42
0.41412818839785787
10
42.78983771746362
20
35.087273945126547
10
43.270511963844065
20
37.808460037742087
42
-0.4141231022445046
10
44.428911057544411
20
38.619319963730135
10
61.220096002434651
20
35.658648427738193
42
0.4142099842328999
10
62.378546653503463
20
36.469800482495984
10
63.685388862751012
20
43.880910243077196
42
-0.41423228423605246
10
64.843914493247993
20
44.692049074296705
10
81.634869280081432
20
41.730099951766732
42
-0.41418610322653165
10
82.445961445079718
20
40.571677750979333
10
81.139505851699312
20
33.161467864296604
42
0.41421288676663254
10
81.95068807264721
20
32.003029781752936
10
98.741609551829669
20
29.042669745226828
42
-0.41421756475000276
10
99.552788999548326
20
27.884215933674852
10
98.246063006710614
20
20.473164587098278
42
0.4142125669161642
10
99.057225649978946
20
19.314713738439412
10
135.50708275060333
20
12.887700873128525
42
0.043660407177654868
10
135.68072882191757
20
12.872508997545218
10
142.31927532060524
20
12.872508997545218
42
0.043660407177654868
10
142.49292139191948
20
12.887700873128525
10
178.94277849254388
20
19.314713738439416
42
0.41421256691616704
10
179.75394113581217
20
20.473164587098282
10
178.44721514297444
20
27.884215933674849
42
-0.41421756475001886
10
179.25839459069311
20
29.042669745226817
10
196.04931606987563
20
32.003029781752943
42
0.41421288676662205
10
196.8604982908235
20
33.161467864296604
10
195.55404269744312
20
40.57167775097934
42
-0.41418610322651583
10
196.36513486244138
20
41.730099951766718
10
213.1560896492748
20
44.692049074296698
42
-0.41423228423607178
10
214.3146152797718
20
43.880910243077196
10
215.62145748901935
20
36.469800482495984
42
0.41420998423289712
10
216.77990814008814
20
35.658648427738171
10
233.5710930849784
20
38.619319963730106
42
-0.41412310224450116
0
LWPOLYLINE
5
109
100
AcDbEntity
8
0
100
AcDbPolyline
90
4
70
1
43
0.0
10
237.43200414252277
20
37.027900000000002
10
234.99960414252283
20
50.815200000000004
10
248.78700414252279
20
53.246200000000002
10
251.21780414252282
20
39.4589
0
LWPOLYLINE
5
110
100
AcDbEntity
8
0
100
AcDbPolyline
90
4
70
1
43
0.0
10
197.4287041425228
20
44.481700000000004
10
194.99810414252281
20
58.270400000000002
10
208.78540414252282
20
60.702500000000008
10
211.21600414252282
20
46.913800000000009
0
LWPOLYLINE
5
111
100
AcDbEntity
8
0
100
AcDbPolyline
90
4
70
1
43
0.0
10
190.80180414252283
20
52.986900000000006
10
177.0150041425228
20
50.5548
10
174.58400414252282
20
64.342100000000002
10
188.37120414252283
20
66.7727
0
CIRCLE
5
112
100
AcDbEntity
8
0
100
AcDbCircle
10
103.14168662095283
20
37.768237578812304
30
0
40
1.1150000000000055
210
0
220
0
230
1
0
LWPOLYLINE
5
113
100
AcDbEntity
8
0
100
AcDbPolyline
90
4
70
1
43
0.0
10
221.70720414252281
20
97.122900000000016
10
207.92000414252283
20
94.691900000000004
10
205.48900414252279
20
108.47900000000001
10
219.27480414252278
20
110.91000000000001
0
LWPOLYLINE
5
114
100
AcDbEntity
8
0
100
AcDbPolyline
90
4
70
1
43
0.0
10
262.58530414252283
20
84.695599999999999
10
265.01610414252286
20
70.908299999999997
10
251.22890414252282
20
68.4773
10
248.79800414252281
20
82.264600000000016
0
LWPOLYLINE
5
115
100
AcDbEntity
8
0
100
AcDbPolyline
90
4
70
1
43
0.0
10
191.68940414252285
20
77.030799999999999
10
205.47810414252282
20
79.461799999999997
10
207.90870414252282
20
65.674499999999995
10
194.12000414252282
20
63.243499999999997
0
LWPOLYLINE
5
116
100
AcDbEntity
8
0
100
AcDbPolyline
90
4
70
1
43
0.0
10
30.089500000000005
20
58.220700000000001
10
32.520299999999999
20
72.006500000000003
10
46.309100000000001
20
69.575900000000004
10
43.8767
20
55.788600000000002
0
LWPOLYLINE
5
117
100
AcDbEntity
8
0
100
AcDbPolyline
90
4
70
1
43
0.0
10
225.01450414252281
20
78.362200000000001
10
211.22730414252283
20
75.931200000000004
10
208.79630414252284
20
89.719899999999996
10
222.5836041425228
20
92.150800000000004
0
LWPOLYLINE
5
118
100
AcDbEntity
8
0
100
AcDbPolyline
90
4
70
1
43
0.0
10
83.001900000000006
20
58.270400000000002
10
80.571299999999994
20
44.481700000000004
10
66.783999999999992
20
46.913800000000009
10
69.214600000000004
20
60.702500000000008
0
LWPOLYLINE
5
119
100
AcDbEntity
8
0
100
AcDbPolyline
90
4
70
1
43
0.0
10
123.831
20
70.413700000000006
10
121.40100000000002
20
56.627900000000004
10
107.61200000000002
20
59.058500000000009
10
110.045
20
72.845799999999997
0
LWPOLYLINE
5
120
100
AcDbEntity
8
0
100
AcDbPolyline
90
4
70
1
43
0.0
10
113.352
20
91.606500000000011
10
127.13900000000001
20
89.1755
10
124.708
20
75.388300000000015
10
110.92100000000002
20
77.819199999999995
0
LWPOLYLINE
5
121
100
AcDbEntity
8
0
100
AcDbPolyline
90
4
70
1
43
0.0
10
181.75520414252281
20
104.29400000000001
10
184.18580414252284
20
90.506900000000016
10
170.39900414252281
20
88.075900000000019
10
167.96800414252283
20
101.86300000000001
0
LWPOLYLINE
5
122
100
AcDbEntity
8
0
100
AcDbPolyline
90
4
70
1
43
0.0
10
245.47970414252285
20
72.006500000000003
10
247.91050414252283
20
58.220700000000001
10
234.12330414252281
20
55.788600000000002
10
231.69090414252281
20
69.575900000000004
0
LWPOLYLINE
5
123
100
AcDbEntity
8
0
100
AcDbPolyline
90
4
70
1
43
0.0
10
118.09200000000003
20
37.8658
10
104.30500000000002
20
40.297800000000009
10
106.736
20
54.085400000000007
10
120.52300000000001
20
51.654400000000003
0
LWPOLYLINE
5
124
100
AcDbEntity
8
0
100
AcDbPolyline
90
4
70
1
43
0.0
10
65.894999999999996
20
70.958100000000002
10
63.463999999999999
20
57.1708
10
49.676800000000007
20
59.602900000000005
10
52.109200000000008
20
73.3887
0
LWPOLYLINE
5
125
100
AcDbEntity
8
0
100
AcDbPolyline
90
4
70
1
43
0.0
10
25.893300000000004
20
63.502800000000008
10
23.462499999999999
20
49.716999999999999
10
9.6752100000000052
20
52.147599999999997
10
12.1061
20
65.934899999999999
0
LWPOLYLINE
5
126
100
AcDbEntity
8
0
100
AcDbPolyline
90
4
70
1
43
0.0
10
60.156700000000001
20
38.4101
10
46.369500000000002
20
40.841099999999997
10
48.800500000000007
20
54.628300000000003
10
62.587699999999998
20
52.197400000000009
0
LWPOLYLINE
5
127
100
AcDbEntity
8
0
100
AcDbPolyline
90
4
70
1
43
0.0
10
230.81600414252281
20
74.548999999999992
10
228.38360414252281
20
88.336299999999994
10
242.1708041425228
20
90.767300000000006
10
244.60190414252281
20
76.980000000000004
0
LWPOLYLINE
5
128
100
AcDbEntity
8
0
100
AcDbPolyline
90
4
70
1
43
0.0
10
241.29450414252284
20
95.742099999999994
10
227.5073041425228
20
93.309700000000007
10
225.07520414252281
20
107.09700000000001
10
238.8635041425228
20
109.529
0
LWPOLYLINE
5
129
100
AcDbEntity
8
0
100
AcDbPolyline
90
4
70
1
43
0.0
10
187.50440414252282
20
100.76500000000001
10
185.07340414252283
20
114.55100000000002
10
198.86210414252281
20
116.98200000000001
10
201.29270414252284
20
103.19600000000001
0
LWPOLYLINE
5
130
100
AcDbEntity
8
0
100
AcDbPolyline
90
4
70
1
43
0.0
10
83.879999999999995
20
63.243499999999997
10
70.091300000000004
20
65.674499999999995
10
72.521900000000002
20
79.461799999999997
10
86.310599999999994
20
77.030799999999999
0
LWPOLYLINE
5
131
100
AcDbEntity
8
0
100
AcDbPolyline
90
4
70
1
43
0.0
10
204.60000414252281
20
84.435199999999995
10
190.81270414252282
20
82.004300000000001
10
188.38210414252279
20
95.791499999999999
10
202.16940414252281
20
98.222499999999997
0
LWPOLYLINE
5
132
100
AcDbEntity
8
0
100
AcDbPolyline
90
4
70
1
43
0.0
10
29.213000000000005
20
53.246200000000002
10
43.000399999999999
20
50.815200000000004
10
40.568000000000012
20
37.027900000000002
10
26.7822
20
39.4589
0
LWPOLYLINE
5
133
100
AcDbEntity
8
0
100
AcDbPolyline
90
4
70
1
43
0.0
10
150.86100414252283
20
89.1755
10
164.64800414252281
20
91.606500000000011
10
167.07900414252279
20
77.819199999999995
10
153.29200414252281
20
75.388300000000015
0
LWPOLYLINE
5
134
100
AcDbEntity
8
0
100
AcDbPolyline
90
4
70
1
43
0.0
10
173.7060041425228
20
69.315200000000004
10
171.27500414252282
20
83.103899999999996
10
185.06250414252278
20
85.534899999999993
10
187.49310414252278
20
71.746200000000016
0
LWPOLYLINE
5
135
100
AcDbEntity
8
0
100
AcDbPolyline
90
4
70
1
43
0.0
10
90.506900000000016
20
71.746200000000016
10
92.937500000000014
20
85.534899999999993
10
106.72499999999999
20
83.103899999999996
10
104.29400000000001
20
69.315200000000004
0
LWPOLYLINE
5
136
100
AcDbEntity
8
0
100
AcDbPolyline
90
4
70
1
43
0.0
10
261.70880414252281
20
89.6691
10
247.9216041425228
20
87.236699999999999
10
245.49070414252282
20
101.02500000000001
10
259.27800414252283
20
103.45600000000002
0
CIRCLE
5
137
100
AcDbEntity
8
0
100
AcDbCircle
10
29.227687620952885
20
55.802238578812286
30
0
40
1.1150000000000011
210
0
220
0
230
1
0
LWPOLYLINE
5
138
100
AcDbEntity
8
0
100
AcDbPolyline
90
4
70
1
43
0.0
10
110.03200000000001
20
101.86300000000001
10
107.60100000000001
20
88.075900000000019
10
93.8142
20
90.506900000000016
10
96.244799999999998
20
104.29400000000001
0
CIRCLE
5
139
100
AcDbEntity
8
0
100
AcDbCircle
10
242.07968662095283
20
93.39423857881232
30
0
40
1.1149999999999878
210
0
220
0
230
1
0
LWPOLYLINE
5
140
100
AcDbEntity
8
0
100
AcDbPolyline
90
4
70
1
43
0.0
10
76.707300000000004
20
103.19600000000001
10
79.137900000000002
20
116.98200000000001
10
92.926599999999993
20
114.55100000000002
10
90.495599999999996
20
100.76500000000001
0
LWPOLYLINE
5
141
100
AcDbEntity
8
0
100
AcDbPolyline
90
4
70
1
43
0.0
10
72.51100000000001
20
108.47900000000001
10
70.079999999999998
20
94.691900000000004
10
56.292800000000007
20
97.122900000000016
10
58.725200000000008
20
110.91000000000001
0
LWPOLYLINE
5
142
100
AcDbEntity
8
0
100
AcDbPolyline
90
4
70
1
43
0.0
10
39.136499999999998
20
109.529
10
52.924800000000005
20
107.09700000000001
10
50.492699999999999
20
93.309700000000007
10
36.705500000000001
20
95.742099999999994
0
CIRCLE
5
143
100
AcDbEntity
8
0
100
AcDbCircle
10
109.99968662095287
20
75.360239578812298
30
0
40
1.1150000000000055
210
0
220
0
230
1
0
LWPOLYLINE
5
144
100
AcDbEntity
8
0
100
AcDbPolyline
90
4
70
1
43
0.0
10
89.617900000000006
20
95.791499999999999
10
87.187299999999993
20
82.004300000000001
10
73.400000000000006
20
84.435199999999995
10
75.830600000000004
20
98.222499999999997
0
LWPOLYLINE
5
145
100
AcDbEntity
8
0
100
AcDbPolyline
90
4
70
1
43
0.0
10
47.183999999999997
20
74.548999999999992
10
33.398099999999999
20
76.980000000000004
10
35.8292
20
90.767300000000006
10
49.616399999999999
20
88.336299999999994
0
LWPOLYLINE
5
146
100
AcDbEntity
8
0
100
AcDbPolyline
90
4
70
1
43
0.0
10
16.291200000000003
20
89.6691
10
18.722000000000001
20
103.45600000000002
10
32.509300000000003
20
101.02500000000001
10
30.078399999999998
20
87.236699999999999
0
CIRCLE
5
147
100
AcDbEntity
8
0
100
AcDbCircle
10
167.91168762095285
20
75.360238578812314
30
0
40
1.1149999999999878
210
0
220
0
230
1
0
LWPOLYLINE
5
148
100
AcDbEntity
8
0
100
AcDbPolyline
90
4
70
1
43
0.0
10
69.203699999999998
20
89.719899999999996
10
66.7727
20
75.931200000000004
10
52.985500000000002
20
78.362200000000001
10
55.41640000000001
20
92.150800000000004
0
LWPOLYLINE
5
149
100
AcDbEntity
8
0
100
AcDbPolyline
90
4
70
1
43
0.0
10
177.00246135018341
20
21.536711123714554
10
163.21546135018343
20
19.105811123714563
10
160.78446135018345
20
32.891711123714529
10
174.57146135018343
20
35.32391112371451
0
LWPOLYLINE
5
150
100
AcDbEntity
8
0
100
AcDbPolyline
90
4
70
1
43
0.0
10
12.983900000000004
20
70.908299999999997
10
15.414700000000003
20
84.695599999999999
10
29.201999999999998
20
82.264600000000016
10
26.771100000000004
20
68.4773
0
CIRCLE
5
151
100
AcDbEntity
8
0
100
AcDbCircle
10
35.831686620952951
20
93.394239578812289
30
0
40
1.1150000000000011
210
0
220
0
230
1
0
LWPOLYLINE
5
152
100
AcDbEntity
8
0
100
AcDbPolyline
90
4
70
1
43
0.0
10
103.4285427923394
20
35.323911123714502
10
117.21554279233935
20
32.891711123714515
10
114.78454279233938
20
19.105811123714552
10
100.99754279233942
20
21.536711123714539
0
CIRCLE
5
153
100
AcDbEntity
8
0
100
AcDbCircle
10
174.51568662095275
20
38.276238578812311
30
0
40
1.1149999999999878
210
0
220
0
230
1
0
CIRCLE
5
154
100
AcDbEntity
8
0
100
AcDbCircle
10
248.68368662095278
20
55.802338578812325
30
0
40
1.1149999999999878
210
0
220
0
230
1
0
LWPOLYLINE
5
155
100
AcDbEntity
8
0
100
AcDbPolyline
90
4
70
1
43
0.0
10
122.18909002139702
20
32.015683854269739
10
135.97609002139697
20
29.583483854269751
10
133.54509002139702
20
15.797583854269789
10
119.75809002139704
20
18.228483854269776
0
LWPOLYLINE
5
156
100
AcDbEntity
8
0
100
AcDbPolyline
90
4
70
1
43
0.0
10
144.45491412112577
20
15.797583854269771
10
142.02391412112578
20
29.58348385426973
10
155.81091412112573
20
32.015683854269717
10
158.24191412112572
20
18.228483854269758
0
ENDSEC
0
SECTION
2
OBJECTS
0
DICTIONARY
5
C
100
AcDbDictionary
3
ACAD_GROUP
350
D
3
ACAD_MLINESTYLE
350
17
0
DICTIONARY
5
D
100
AcDbDictionary
0
DICTIONARY
5
1A
330
C
100
AcDbDictionary
0
DICTIONARY
5
17
100
AcDbDictionary
0
ENDSEC
0
EOF
